# xmcd
#
# Track frame offsets:
#	150
#	14199
#	28334
#	43219
#	57560
#	72016
#	88976
#	105390
#	119466
#	138955
#	159011
#	177345
#	197420
#	213150
#	228310
#	243205
#
# Disc length: 3482
#
# Revision: 4
# Processed by: cddbd v1.5.1PL0 Copyright (c) Steve Scherf et al.
# Submitted via: CDex 1.50
# Normalized: r3:DSETVAR1
#
DISCID=dc0d9810
DTITLE=Various Artist - www.dancenet.net 5 CD 2
DYEAR=2000
DGENRE=Dance
TTITLE0=Superfunk - The Young MC
TTITLE1=Five and Queen - We Will Rock You
TTITLE2=Alcazar - Ritmo del amor
TTITLE3=Ruben Gomez - Siempre Manana (Tomorrow Forever)
TTITLE4=Jody Bernal - Que si que no
TTITLE5=Backstreet Boys - The One
TTITLE6=Girl Thing - Last One Standing
TTITLE7=N'Sync - I´ll Never Stop
TTITLE8=Christina Aguilera - I Turn To You (Thunderpuss remix)
TTITLE9=TLC - Unpretty (Don't Look Any Further mix)
TTITLE10=Aaliyah - Try Again
TTITLE11=Heather Small - Holding On
TTITLE12=Shanks and Bigfoot - Sing-A-Long
TTITLE13=E - Rotic - Don't Make Me Wet
TTITLE14=French Affair - Poison
TTITLE15=La Bouche - All I Want
EXTD=YEAR: 2000
EXTT0=
EXTT1=
EXTT2=
EXTT3=
EXTT4=
EXTT5=
EXTT6=
EXTT7=
EXTT8=
EXTT9=
EXTT10=
EXTT11=
EXTT12=
EXTT13=
EXTT14=
EXTT15=
PLAYORDER=
